<?xml version="1.0" encoding="UTF-8" standalone="no"?>
<!-- Uploaded to: SVG Repo, www.svgrepo.com, Generator: SVG Repo Mixer Tools -->

<svg
   fill="#000000"
   height="320.61572"
   width="320.61572"
   version="1.1"
   viewBox="0 0 182.70327 182.70327"
   enable-background="new 0 0 455.881 455.881"
   id="svg14"
   sodipodi:docname="light-bulb.svg"
   inkscape:version="1.3 (0e150ed6c4, 2023-07-21)"
   xmlns:inkscape="http://www.inkscape.org/namespaces/inkscape"
   xmlns:sodipodi="http://sodipodi.sourceforge.net/DTD/sodipodi-0.dtd"
   xmlns="http://www.w3.org/2000/svg"
   xmlns:svg="http://www.w3.org/2000/svg">
  <sodipodi:namedview
     id="namedview1"
     pagecolor="#ffffff"
     bordercolor="#000000"
     borderopacity="0.25"
     inkscape:showpageshadow="2"
     inkscape:pageopacity="0.0"
     inkscape:pagecheckerboard="0"
     inkscape:deskcolor="#d1d1d1"
     inkscape:zoom="5.6734585"
     inkscape:cx="160.30786"
     inkscape:cy="160.30786"
     inkscape:window-width="3840"
     inkscape:window-height="2054"
     inkscape:window-x="2869"
     inkscape:window-y="-11"
     inkscape:window-maximized="1"
     inkscape:current-layer="svg14" />
  <defs
     id="defs14" />
  <path
     d="m 125.25611,109.58116 c 8.21245,-5.08396 14.39279,-12.547256 17.8732,-21.583352 4.26728,-11.078981 3.92236,-23.138338 -0.97127,-33.956805 C 137.26513,43.224832 128.42733,34.997463 117.2853,30.889712 106.48895,26.905838 94.712888,27.317948 84.12629,32.050171 73.54018,36.782179 65.378465,45.282084 61.144617,55.983351 57.515086,65.157508 57.049546,74.998912 59.798032,84.444149 64.259937,99.777361 63.638795,116.215 58.048466,130.72899 l -6.116923,15.88116 c -2.713301,7.04445 0.810277,14.98281 7.85473,17.69612 l 11.883154,4.57702 c 7.044445,2.71329 14.982939,-0.81064 17.696107,-7.85474 l 6.116521,-15.88013 c 5.652475,-14.67426 15.913205,-26.98706 29.774055,-35.56726 z"
     id="path1-7"
     style="fill:#cccccc;stroke-width:0.376149"
     sodipodi:nodetypes="csccsccssssscc" />
  <path
     d="m 122.9761,106.26789 c 7.70573,-4.77027 13.50473,-11.773071 16.7704,-20.251621 4.00398,-10.39539 3.68034,-21.710666 -0.91134,-31.861616 -4.59101,-10.148796 -12.88351,-17.868523 -23.33806,-21.72282 -10.13019,-3.738062 -21.179659,-3.35138 -31.113047,1.088857 -9.93293,4.440036 -17.591054,12.415483 -21.563667,22.456465 -3.405583,8.608097 -3.842399,17.84227 -1.263499,26.704721 4.186599,14.387123 3.603782,29.810534 -1.641615,43.428984 l -5.7395,14.90127 c -2.545886,6.6098 0.760283,14.05835 7.370082,16.60424 l 11.149944,4.29461 c 6.609792,2.54588 14.058468,-0.76062 16.604229,-7.37009 l 5.739122,-14.9003 c 5.303711,-13.76883 14.931341,-25.32191 27.936951,-33.3727 z M 66.640141,81.202945 C 64.39259,73.479467 64.773976,65.430071 67.742984,57.924999 74.8762,39.895255 95.476208,30.687137 113.6642,37.398703 c 9.12162,3.373421 16.34511,10.091005 20.34699,18.938382 4.00335,8.849453 4.28546,18.714166 0.79488,27.776663 -2.84692,7.391356 -7.90121,13.495661 -14.61671,17.653012 -13.70354,8.48318 -23.981554,20.57888 -29.775799,35.02526 l -25.207416,-9.7091 c 5.333196,-14.46208 5.847564,-30.713291 1.433996,-45.879975 z m -6.879251,60.037935 0.770273,-1.99984 24.130048,12.61524 -0.301158,0.78188 c -0.158572,0.4117 -0.355916,0.79636 -0.574834,1.16249 z m 2.685557,-6.97242 0.863764,-2.24257 25.243975,9.72319 -1.977695,5.13462 z m 1.002133,18.40793 c -2.653604,-1.02209 -4.398995,-3.38876 -4.763935,-6.0244 l 20.32702,10.62698 c -1.421155,0.33045 -2.951677,0.25456 -4.412689,-0.30818 l -11.150271,-4.29473 z"
     id="path1"
     style="stroke-width:0.35294" />
  <path
     style="fill:#2a7fff;stroke:#fe0000;stroke-width:0;stroke-linejoin:round"
     id="path16"
     d="m -119.54658,89.471966 -15.17397,-17.028048 1.50603,22.58472 -8.17479,-21.155913 -6.57918,21.059115 0.12346,-19.269873 -13.71731,13.534343 7.48833,-17.755792 -17.85252,7.254712 19.15205,-15.059656 -24.70872,1.391719 17.85029,-7.260192 -17.7535,-7.493781 19.26988,0.123468 -13.53435,-13.717319 20.49184,11.239969 -9.99076,-21.604157 13.53856,13.713163 0.12938,-19.269835 7.26019,17.85029 7.49378,-17.753493 -0.12346,19.269873 13.71731,-13.534343 -10.32208,20.640352 20.68627,-10.139271 -13.71316,13.538553 19.26983,0.129383 -17.85029,7.260193 17.7535,7.49378 -23.18708,-1.913966 17.45155,15.507817 -17.7558,-7.48833 z"
     transform="matrix(1.4004003,0.53938993,-0.53938993,1.4004003,328.87201,67.429403)"
     sodipodi:nodetypes="ccccccccccccccccccccccccccccccccc" />
  <path
     d="m 75.356377,65.482249 c 0.30524,-1.366925 0.724837,-2.730272 1.247747,-4.051556 0.537954,-1.359363 -0.128014,-2.897265 -1.487376,-3.435221 -1.350396,-0.53374 -2.897265,0.128014 -3.435221,1.487377 -0.624672,1.578609 -1.1267,3.208996 -1.492176,4.846214 -0.289369,1.29626 0.425475,2.582564 1.628934,3.046098 0.121202,0.04668 0.247465,0.08514 0.378086,0.11424 1.426669,0.31804 2.841508,-0.580277 3.160004,-2.007148 z"
     id="path2"
     style="stroke-width:0.35294" />
  <path
     d="m 75.4413,108.60195 c 0.255578,0.0984 0.531258,0.15844 0.819831,0.17319 1.460157,0.073 2.703049,-1.05153 2.77592,-2.51137 0.468968,-9.379501 -0.623593,-18.707283 -3.247601,-27.723639 -0.433526,-1.490355 -0.738336,-3.017364 -0.905301,-4.538936 -0.159598,-1.453302 -1.46725,-2.501599 -2.920553,-2.342 -1.452973,0.159725 -2.501599,1.46725 -2.342,2.920553 0.200824,1.82546 0.565567,3.655433 1.084803,5.439769 2.458888,8.44936 3.482885,17.190212 3.043365,25.979703 -0.05862,1.17145 0.653413,2.20288 1.691536,2.60273 z"
     id="path3"
     style="stroke-width:0.35294" />
  <path
     d="m 123.91088,89.630202 c -1.04494,-1.022372 -2.72114,-1.003848 -3.74319,0.04122 -1.48253,1.515965 -3.16294,2.859269 -4.99438,3.992733 -1.24299,0.76935 -1.62676,2.40104 -0.85742,3.64403 0.31586,0.51047 0.77727,0.87579 1.29733,1.07609 0.74664,0.28759 1.61416,0.23481 2.34683,-0.21899 2.1946,-1.35857 4.21048,-2.97092 5.99205,-4.7919 1.02238,-1.044943 1.00422,-2.721 -0.0412,-3.743187 z"
     id="path4"
     style="stroke-width:0.35294" />
  <path
     d="m 110.72745,46.475581 c 13.61944,5.245775 20.43172,20.593933 15.18594,34.213368 -0.29824,0.774311 -0.63432,1.540856 -0.99891,2.27826 -0.64779,1.31063 -0.1109,2.897909 1.19961,3.546019 0.074,0.03645 0.14876,0.0694 0.22452,0.09857 1.2624,0.486238 2.7102,-0.06164 3.3215,-1.298196 0.43564,-0.881751 0.83751,-1.797314 1.19359,-2.72181 6.29501,-16.343519 -1.87988,-34.76152 -18.2234,-41.056525 -1.36418,-0.525441 -2.89613,0.154545 -3.42157,1.518728 -0.52544,1.364183 0.15454,2.896137 1.51872,3.421578 z"
     id="path5"
     style="stroke-width:0.35294" />
  <circle
     style="fill:#aaccff;stroke:#fe0000;stroke-width:0;stroke-linejoin:round"
     id="path17"
     cx="120.20832"
     cy="30.562269"
     r="21.301365"
     transform="rotate(21.065108)" />
  <circle
     style="fill:#d7eef4;stroke:#fe0000;stroke-width:0;stroke-linejoin:round"
     id="path17-4"
     cx="116.83576"
     cy="29.200493"
     r="14.536399"
     transform="rotate(21.065108)" />
</svg>
