<?xml version="1.0" encoding="UTF-8" standalone="no"?>
<!-- Created with Inkscape (http://www.inkscape.org/) -->

<svg
   width="53.396404mm"
   height="28.52247mm"
   viewBox="0 0 53.396404 28.52247"
   version="1.1"
   id="svg1"
   inkscape:version="1.3 (0e150ed6c4, 2023-07-21)"
   sodipodi:docname="pslib-shape.svg"
   xmlns:inkscape="http://www.inkscape.org/namespaces/inkscape"
   xmlns:sodipodi="http://sodipodi.sourceforge.net/DTD/sodipodi-0.dtd"
   xmlns="http://www.w3.org/2000/svg"
   xmlns:svg="http://www.w3.org/2000/svg">
  <sodipodi:namedview
     id="namedview1"
     pagecolor="#ffffff"
     bordercolor="#000000"
     borderopacity="0.25"
     inkscape:showpageshadow="2"
     inkscape:pageopacity="0.0"
     inkscape:pagecheckerboard="0"
     inkscape:deskcolor="#d1d1d1"
     inkscape:document-units="mm"
     inkscape:zoom="1.6204616"
     inkscape:cx="369.64776"
     inkscape:cy="237.27807"
     inkscape:window-width="2243"
     inkscape:window-height="1266"
     inkscape:window-x="3198"
     inkscape:window-y="448"
     inkscape:window-maximized="0"
     inkscape:current-layer="layer1" />
  <defs
     id="defs1" />
  <g
     inkscape:label="Vrstva 1"
     inkscape:groupmode="layer"
     id="layer1"
     transform="translate(-7.408333,-85.724998)">
    <path
       id="path1"
       style="fill:#d45500;fill-opacity:1;stroke-width:1.17087;stroke-dasharray:none"
       d="m 9.724151,100.28613 a 8.2359503,8.2359503 0 0 0 0.195842,11.64707 8.2359503,8.2359503 0 0 0 11.64538,-0.1973 8.2359503,8.2359503 0 0 0 0.306662,-0.36807 l 0.02574,0.0266 10.55336,-10.91428 a 14.220652,14.17551 44.036817 0 0 4.300821,9.63144 14.220652,14.17551 44.036817 0 0 20.078203,-0.30525 14.220652,14.17551 44.036817 0 0 -0.371494,-20.075429 14.220652,14.17551 44.036817 0 0 -20.07497,0.30525 14.220652,14.17551 44.036817 0 0 -0.805017,0.96108 l -12.10753,12.521629 a 8.2359503,8.2359503 0 0 0 -2.102783,-3.42613 8.2359503,8.2359503 0 0 0 -11.645481,0.19421 z m 3.074941,2.97328 a 3.9583636,3.9583636 0 0 1 5.597276,-0.0925 3.9583636,3.9583636 0 0 1 0.504136,5.07953 l -0.123911,0.12828 0.01283,0.0133 a 3.9583636,3.9583636 0 0 1 -0.29937,0.3756 3.9583636,3.9583636 0 0 1 -5.597175,0.0956 3.9583636,3.9583636 0 0 1 -0.09414,-5.59889 z m 26.699598,-10.066989 0.146154,-0.15129 a 9.7964496,9.8867407 44.036817 0 1 13.833991,-0.22785 9.7964496,9.8867407 44.036817 0 1 0.172528,13.917379 9.7964496,9.8867407 44.036817 0 1 -13.91688,0.29683 9.7964496,9.8867407 44.036817 0 1 -0.23583,-13.835429 z" />
  </g>
</svg>
