<?xml version="1.0" encoding="UTF-8" standalone="no"?>
<!-- Created with Inkscape (http://www.inkscape.org/) -->

<svg
   width="96.333145mm"
   height="96.333145mm"
   viewBox="0 0 96.333145 96.333145"
   version="1.1"
   id="svg1"
   inkscape:version="1.3 (0e150ed6c4, 2023-07-21)"
   sodipodi:docname="pslib_small_extended_white.svg"
   xmlns:inkscape="http://www.inkscape.org/namespaces/inkscape"
   xmlns:sodipodi="http://sodipodi.sourceforge.net/DTD/sodipodi-0.dtd"
   xmlns="http://www.w3.org/2000/svg"
   xmlns:svg="http://www.w3.org/2000/svg">
  <sodipodi:namedview
     id="namedview1"
     pagecolor="#ffffff"
     bordercolor="#000000"
     borderopacity="0.25"
     inkscape:showpageshadow="2"
     inkscape:pageopacity="0.0"
     inkscape:pagecheckerboard="0"
     inkscape:deskcolor="#d1d1d1"
     inkscape:document-units="mm"
     inkscape:zoom="1.1458394"
     inkscape:cx="200.72621"
     inkscape:cy="195.05352"
     inkscape:window-width="1350"
     inkscape:window-height="729"
     inkscape:window-x="0"
     inkscape:window-y="0"
     inkscape:window-maximized="0"
     inkscape:current-layer="layer1" />
  <defs
     id="defs1" />
  <g
     inkscape:label="Vrstva 1"
     inkscape:groupmode="layer"
     id="layer1"
     transform="translate(-35.718753,-38.629168)">
    <rect
       style="fill:#f2f2f2;fill-opacity:1;stroke-width:0.798679;stroke-dasharray:none"
       id="rect1"
       width="96.333145"
       height="96.333145"
       x="35.718754"
       y="38.629169" />
    <path
       id="path1-7"
       style="fill:#d45500;fill-opacity:1;stroke-width:1.81533;stroke-dasharray:none"
       d="m 46.572521,86.12937 a 12.769078,12.769078 0 0 0 0.303635,18.0577 12.769078,12.769078 0 0 0 18.055083,-0.30589 12.769078,12.769078 0 0 0 0.475451,-0.57066 l 0.03991,0.0412 16.362007,-16.92158 a 22.047804,21.977815 44.036817 0 0 6.668024,14.93266 22.047804,21.977815 44.036817 0 0 31.129389,-0.47326 22.047804,21.977815 44.036817 0 0 -0.57596,-31.125101 22.047804,21.977815 44.036817 0 0 -31.124383,0.473262 22.047804,21.977815 44.036817 0 0 -1.248105,1.490065 L 67.885967,91.141434 a 12.769078,12.769078 0 0 0 -3.260171,-5.311898 12.769078,12.769078 0 0 0 -18.055239,0.301105 z m 4.767412,4.609795 a 6.1370761,6.1370761 0 0 1 8.678057,-0.143413 6.1370761,6.1370761 0 0 1 0.781617,7.87534 l -0.192113,0.19889 0.01989,0.0206 a 6.1370761,6.1370761 0 0 1 -0.464146,0.58233 6.1370761,6.1370761 0 0 1 -8.677901,0.14822 6.1370761,6.1370761 0 0 1 -0.145955,-8.680562 z m 41.395253,-15.607936 0.226598,-0.234561 a 15.188488,15.328476 44.036817 0 1 21.448326,-0.35326 15.188488,15.328476 44.036817 0 1 0.26749,21.577604 15.188488,15.328476 44.036817 0 1 -21.576839,0.46021 15.188488,15.328476 44.036817 0 1 -0.365632,-21.450551 z" />
  </g>
</svg>
