<?xml version="1.0" encoding="UTF-8" standalone="no"?>
<!-- Created with Inkscape (http://www.inkscape.org/) -->

<svg
   width="10.273883mm"
   height="5.2541337mm"
   viewBox="0 0 10.273883 5.2541338"
   version="1.1"
   id="svg1"
   xml:space="preserve"
   inkscape:version="1.3 (0e150ed6c4, 2023-07-21)"
   sodipodi:docname="pslib_logo.svg"
   inkscape:export-filename="pslib_logo.png"
   inkscape:export-xdpi="316.45291"
   inkscape:export-ydpi="316.45291"
   xmlns:inkscape="http://www.inkscape.org/namespaces/inkscape"
   xmlns:sodipodi="http://sodipodi.sourceforge.net/DTD/sodipodi-0.dtd"
   xmlns="http://www.w3.org/2000/svg"
   xmlns:svg="http://www.w3.org/2000/svg"><sodipodi:namedview
     id="namedview1"
     pagecolor="#ffffff"
     bordercolor="#000000"
     borderopacity="0.25"
     inkscape:showpageshadow="2"
     inkscape:pageopacity="0.0"
     inkscape:pagecheckerboard="0"
     inkscape:deskcolor="#d1d1d1"
     inkscape:document-units="mm"
     showguides="true"
     inkscape:zoom="9.1667148"
     inkscape:cx="42.436141"
     inkscape:cy="12.163572"
     inkscape:window-width="2243"
     inkscape:window-height="1266"
     inkscape:window-x="295"
     inkscape:window-y="976"
     inkscape:window-maximized="0"
     inkscape:current-layer="layer1" /><defs
     id="defs1" /><g
     inkscape:label="Vrstva 1"
     inkscape:groupmode="layer"
     id="layer1"
     transform="translate(-85.322903,-141.30435)"><path
       id="path1"
       style="fill:#4259a5;fill-opacity:1;stroke-width:0.220365"
       d="m 85.768487,143.98657 a 1.5846697,1.5171903 0 0 0 0.03768,2.14557 1.5846697,1.5171903 0 0 0 2.240674,-0.0363 1.5846697,1.5171903 0 0 0 0.059,-0.0678 l 0.0049,0.005 2.030561,-2.01059 a 2.7321367,2.6152132 2.0825788 0 0 0.827518,1.77427 2.7321367,2.6152132 2.0825788 0 0 3.863221,-0.0562 2.7321367,2.6152132 2.0825788 0 0 -0.07147,-3.6982 2.7321367,2.6152132 2.0825788 0 0 -3.862602,0.0562 2.7321367,2.6152132 2.0825788 0 0 -0.154892,0.17704 l -2.329597,2.30669 a 1.5846697,1.5171903 0 0 0 -0.404595,-0.63115 1.5846697,1.5171903 0 0 0 -2.240694,0.0358 z m 0.591648,0.54772 a 0.76162412,0.7291922 0 0 1 1.076964,-0.0171 0.76162412,0.7291922 0 0 1 0.097,0.93573 l -0.02384,0.0236 0.0025,0.003 a 0.76162412,0.7291922 0 0 1 -0.0576,0.0692 0.76162412,0.7291922 0 0 1 -1.076947,0.0176 0.76162412,0.7291922 0 0 1 -0.01811,-1.03139 z m 5.137238,-1.8545 0.02813,-0.0279 a 1.8123629,1.8942096 84.011313 0 1 2.661781,-0.042 1.8123629,1.8942096 84.011313 0 1 0.03319,2.5638 1.8123629,1.8942096 84.011313 0 1 -2.677731,0.0547 1.8123629,1.8942096 84.011313 0 1 -0.04537,-2.54871 z" /></g></svg>
